<svg id="visual" viewBox="0 0 900 600" width="900" height="600" xmlns="http://www.w3.org/2000/svg" xmlns:xlink="http://www.w3.org/1999/xlink" version="1.1"><rect x="0" y="0" width="900" height="600" fill="#062840"></rect><g fill="#FF0066"><path d="M0 -119.9L26.9 -37L114 -37L43.5 14.1L70.5 97L0 45.8L-70.5 97L-43.5 14.1L-114 -37L-26.9 -37Z" transform="translate(849 425)"></path><path d="M0 -60.4L13.6 -18.7L57.4 -18.7L21.9 7.1L35.5 48.9L0 23.1L-35.5 48.9L-21.9 7.1L-57.4 -18.7L-13.6 -18.7Z" transform="translate(445 56)"></path><path d="M0 -90.6L20.3 -28L86.2 -28L32.9 10.7L53.3 73.3L0 34.6L-53.3 73.3L-32.9 10.7L-86.2 -28L-20.3 -28Z" transform="translate(430 548)"></path><path d="M0 -76.5L17.2 -23.6L72.7 -23.6L27.8 9L44.9 61.8L0 29.2L-44.9 61.8L-27.8 9L-72.7 -23.6L-17.2 -23.6Z" transform="translate(55 121)"></path><path d="M0 -91.6L20.6 -28.3L87.1 -28.3L33.3 10.8L53.8 74.1L0 35L-53.8 74.1L-33.3 10.8L-87.1 -28.3L-20.6 -28.3Z" transform="translate(33 579)"></path><path d="M0 -110.4L24.8 -34.1L105 -34.1L40.1 13L64.9 89.3L0 42.2L-64.9 89.3L-40.1 13L-105 -34.1L-24.8 -34.1Z" transform="translate(834 165)"></path><path d="M0 -84.9L19.1 -26.2L80.8 -26.2L30.9 10L49.9 68.7L0 32.4L-49.9 68.7L-30.9 10L-80.8 -26.2L-19.1 -26.2Z" transform="translate(258 289)"></path></g></svg>